<?xml version="1.0" encoding="UTF-8"?>
<svg width="20px" height="18px" viewBox="0 0 20 18" version="1.1" xmlns="http://www.w3.org/2000/svg" xmlns:xlink="http://www.w3.org/1999/xlink">
    <!-- Generator: Sketch 43.1 (39012) - http://www.bohemiancoding.com/sketch -->
    <title>iconmonstr-calendar-1</title>
    <desc>Created with Sketch.</desc>
    <defs></defs>
    <g id="Page-1" stroke="none" stroke-width="1" fill="none" fill-rule="evenodd">
        <g id="Enquiries" transform="translate(-804.000000, -640.000000)" fill-rule="nonzero" fill="#000000">
            <g id="iconmonstr-calendar-1" transform="translate(804.000000, 640.000000)">
                <path d="M16.6666667,14.7272727 L13.3333333,14.7272727 L13.3333333,11.4545455 L16.6666667,11.4545455 L16.6666667,14.7272727 Z M11.6666667,6.54545455 L8.33333333,6.54545455 L8.33333333,9.81818182 L11.6666667,9.81818182 L11.6666667,6.54545455 Z M16.6666667,6.54545455 L13.3333333,6.54545455 L13.3333333,9.81818182 L16.6666667,9.81818182 L16.6666667,6.54545455 Z M6.66666667,11.4545455 L3.33333333,11.4545455 L3.33333333,14.7272727 L6.66666667,14.7272727 L6.66666667,11.4545455 Z M20,0 L20,18 L0,18 L0,0 L20,0 Z M18.3333333,4.90909091 L1.66666667,4.90909091 L1.66666667,16.3636364 L18.3333333,16.3636364 L18.3333333,4.90909091 Z M11.6666667,11.4545455 L8.33333333,11.4545455 L8.33333333,14.7272727 L11.6666667,14.7272727 L11.6666667,11.4545455 Z M6.66666667,6.54545455 L3.33333333,6.54545455 L3.33333333,9.81818182 L6.66666667,9.81818182 L6.66666667,6.54545455 Z" id="Shape"></path>
            </g>
        </g>
    </g>
</svg>