<?xml version="1.0" encoding="UTF-8"?>
<svg width="20px" height="20px" viewBox="0 0 20 20" version="1.1" xmlns="http://www.w3.org/2000/svg" xmlns:xlink="http://www.w3.org/1999/xlink">
    <!-- Generator: Sketch 43.1 (39012) - http://www.bohemiancoding.com/sketch -->
    <title>iconmonstr-instagram-11</title>
    <desc>Created with Sketch.</desc>
    <defs></defs>
    <g id="Symbols" stroke="none" stroke-width="1" fill="none" fill-rule="evenodd">
        <g id="Footer" transform="translate(-706.000000, -177.000000)" fill-rule="nonzero" fill="#000000">
            <g id="Group-3">
                <g transform="translate(628.000000, 177.000000)">
                    <g id="iconmonstr-instagram-11" transform="translate(78.000000, 0.000000)">
                        <path d="M9.94285714,1.8025 C12.5976,1.8025 12.9124571,1.8125 13.9614286,1.86083333 C16.6559429,1.98416667 17.9145429,3.27 18.0371714,5.96 C18.0852286,7.01416667 18.0943429,7.33083333 18.0943429,10.0008333 C18.0943429,12.6716667 18.0844,12.9875 18.0371714,14.0416667 C17.9137143,16.7291667 16.6584286,18.0175 13.9614286,18.1408333 C12.9124571,18.1891667 12.5992571,18.1991667 9.94285714,18.1991667 C7.28811429,18.1991667 6.97325714,18.1891667 5.92511429,18.1408333 C3.22397143,18.0166667 1.972,16.725 1.84937143,14.0408333 C1.80131429,12.9866667 1.79137143,12.6708333 1.79137143,10 C1.79137143,7.33 1.80214286,7.01416667 1.84937143,5.95916667 C1.97282857,3.27 3.22811429,1.98333333 5.92511429,1.86 C6.97408571,1.8125 7.28811429,1.8025 9.94285714,1.8025 L9.94285714,1.8025 Z M9.94285714,4.04768811e-16 C7.24254286,4.04768811e-16 6.90448571,0.0116666667 5.84391429,0.06 C2.233,0.226666667 0.2262,2.24166667 0.0604857143,5.87666667 C0.0116,6.94416667 0,7.28416667 0,10 C0,12.7158333 0.0116,13.0566667 0.0596571429,14.1233333 C0.225371429,17.755 2.22885714,19.7733333 5.84308571,19.94 C6.90448571,19.9883333 7.24254286,20 9.94285714,20 C12.6431714,20 12.9820571,19.9883333 14.0426286,19.94 C17.6502286,19.7733333 19.662,17.7583333 19.8252286,14.1233333 C19.8741143,13.0566667 19.8857143,12.7158333 19.8857143,10 C19.8857143,7.28416667 19.8741143,6.94416667 19.8260571,5.8775 C19.6636571,2.24916667 17.6576857,0.2275 14.0434571,0.0608333333 C12.9820571,0.0116666667 12.6431714,0 9.94285714,0 L9.94285714,4.04768811e-16 Z M9.94285714,4.865 C7.12322857,4.865 4.8372,7.16416667 4.8372,10 C4.8372,12.8358333 7.12322857,15.1358333 9.94285714,15.1358333 C12.7624857,15.1358333 15.0485143,12.8366667 15.0485143,10 C15.0485143,7.16416667 12.7624857,4.865 9.94285714,4.865 Z M9.94285714,13.3333333 C8.11254286,13.3333333 6.62857143,11.8416667 6.62857143,10 C6.62857143,8.15916667 8.11254286,6.66666667 9.94285714,6.66666667 C11.7731714,6.66666667 13.2571429,8.15916667 13.2571429,10 C13.2571429,11.8416667 11.7731714,13.3333333 9.94285714,13.3333333 Z M15.2506857,3.4625 C14.5911429,3.4625 14.0567143,4 14.0567143,4.6625 C14.0567143,5.325 14.5911429,5.8625 15.2506857,5.8625 C15.9094,5.8625 16.443,5.325 16.443,4.6625 C16.443,4 15.9094,3.4625 15.2506857,3.4625 Z" id="Shape"></path>
                    </g>
                </g>
            </g>
        </g>
    </g>
</svg>