<?xml version="1.0" encoding="UTF-8"?>
<svg width="21px" height="18px" viewBox="0 0 21 18" version="1.1" xmlns="http://www.w3.org/2000/svg" xmlns:xlink="http://www.w3.org/1999/xlink">
    <!-- Generator: Sketch 43.1 (39012) - http://www.bohemiancoding.com/sketch -->
    <title>iconmonstr-vimeo-1</title>
    <desc>Created with Sketch.</desc>
    <defs></defs>
    <g id="Symbols" stroke="none" stroke-width="1" fill="none" fill-rule="evenodd">
        <g id="Footer" transform="translate(-749.000000, -178.000000)" fill-rule="nonzero" fill="#000000">
            <g id="Group-3">
                <g transform="translate(628.000000, 177.000000)">
                    <g id="iconmonstr-vimeo-1" transform="translate(121.142857, 0.833333)">
                        <path d="M18.9535714,7.5525 C16.9302,11.9 12.0457714,17.8183333 8.95851429,17.8183333 C5.916,17.8183333 5.47602857,11.2925 3.81474286,6.94916667 C2.99694286,4.81166667 2.46914286,5.3025 0.936285714,6.38166667 L0.00165714286,5.16916667 C2.23714286,3.1925 4.47428571,0.896666667 5.84888571,0.769166667 C7.39665714,0.62 8.34951429,1.68416667 8.7058,3.9625 C9.17642857,6.95666667 9.83431429,11.6041667 10.9827143,11.6041667 C11.8775714,11.6041667 14.0824,7.9175 14.1959143,6.59916667 C14.3972571,4.66916667 12.7848571,4.61083333 11.3854,5.21333333 C13.6001714,-2.08166667 22.8138857,-0.738333333 18.9535714,7.5525 Z" id="Shape"></path>
                    </g>
                </g>
            </g>
        </g>
    </g>
</svg>