<?xml version="1.0" encoding="UTF-8"?>
<svg width="57px" height="60px" viewBox="0 0 57 60" version="1.1" xmlns="http://www.w3.org/2000/svg" xmlns:xlink="http://www.w3.org/1999/xlink">
    <!-- Generator: Sketch 43.1 (39012) - http://www.bohemiancoding.com/sketch -->
    <title>Page 1</title>
    <desc>Created with Sketch.</desc>
    <defs></defs>
    <g id="Page-1" stroke="none" stroke-width="1" fill="none" fill-rule="evenodd">
        <g id="Shop" transform="translate(-672.000000, -361.000000)" fill="#000000">
            <g id="Page-1" transform="translate(672.000000, 361.000000)">
                <path d="M40.6988,29 C40.1438,29 39.6988,28.553 39.6988,28 L39.6988,9.75 C39.6988,5.043 36.2848,2 30.9998,2 L28.4998,2 C23.2338,2 19.6988,5.115 19.6988,9.75 L19.6988,28 C19.6988,28.553 19.2498,29 18.6988,29 C18.1438,29 17.6988,28.553 17.6988,28 L17.6988,9.75 C17.6988,3.918 22.0388,0 28.4998,0 L30.9998,0 C37.3978,0 41.6988,3.918 41.6988,9.75 L41.6988,28 C41.6988,28.553 41.2498,29 40.6988,29" id="Fill-1"></path>
                <path d="M35.6988,60 L0.9998,60 C0.6788,60 0.3788,59.846 0.1908,59.586 C0.0038,59.326 -0.0512,58.992 0.0508,58.688 L12.5508,20.687 C12.6868,20.277 13.0698,20 13.4998,20 L45.9998,20 C46.4288,20 46.8078,20.271 46.9448,20.674 L52.6438,37.217 C52.8238,37.74 52.5468,38.309 52.0228,38.488 C51.4998,38.67 50.9328,38.389 50.7538,37.869 L45.2888,22 L14.2258,22 L2.3828,58 L35.6988,58 C36.2498,58 36.6988,58.447 36.6988,59 C36.6988,59.553 36.2498,60 35.6988,60" id="Fill-3"></path>
                <path d="M48.6988,57 C48.1438,57 47.6988,56.553 47.6988,56 L47.6988,42 C47.6988,41.447 48.1438,41 48.6988,41 C49.2498,41 49.6988,41.447 49.6988,42 L49.6988,56 C49.6988,56.553 49.2498,57 48.6988,57" id="Fill-5"></path>
                <path d="M55.6988,50 L41.6988,50 C41.1438,50 40.6988,49.553 40.6988,49 C40.6988,48.447 41.1438,48 41.6988,48 L55.6988,48 C56.2498,48 56.6988,48.447 56.6988,49 C56.6988,49.553 56.2498,50 55.6988,50" id="Fill-7"></path>
            </g>
        </g>
    </g>
</svg>