<?xml version="1.0" encoding="UTF-8"?>
<svg width="29px" height="49px" viewBox="0 0 29 49" version="1.1" xmlns="http://www.w3.org/2000/svg" xmlns:xlink="http://www.w3.org/1999/xlink">
    <!-- Generator: Sketch 43.1 (39012) - http://www.bohemiancoding.com/sketch -->
    <title>Page 1</title>
    <desc>Created with Sketch.</desc>
    <defs>
        <polygon id="path-1" points="28.9271087 3.25769301e-14 0.000106972372 8.14423253e-15 0.000106972372 48.7833684 28.9271087 48.7833684 28.9271087 0"></polygon>
    </defs>
    <g id="Page-1" stroke="none" stroke-width="1" fill="none" fill-rule="evenodd">
        <g id="Homepage" transform="translate(-1155.000000, -348.000000)">
            <g id="Page-1" transform="translate(1155.000000, 348.000000)">
                <path d="M7.75195588,35.9228743 L12.2726863,32.7159532 L7.75195588,35.9228743 Z" id="Fill-1" fill="#1D1C1B"></path>
                <g id="Group-156" transform="translate(3.696078, 2.435816)" fill="#1D1C1B">
                    <path d="M0.534699346,29.4618947 C0.531477124,29.7353432 0.518588235,30.0057261 0.518588235,30.2785614 C0.518588235,30.0057261 0.531477124,29.7353432 0.534699346,29.4618947" id="Fill-2"></path>
                    <path d="M21.0297386,30.2629444 C21.0297386,29.9909111 21.0168497,29.720578 21.0136275,29.4485447 L21.0136275,29.4462778 C21.0168497,29.720578 21.0297386,29.9909111 21.0297386,30.2629444" id="Fill-4"></path>
                    <path d="M11.808402,3.80509357 C11.837402,4.04764357 11.859152,4.29019357 11.880902,4.5294769 C11.859152,4.29019357 11.8341797,4.04764357 11.808402,3.80509357" id="Fill-6"></path>
                    <path d="M11.8251765,3.9707193 C11.8469265,4.21000263 11.8654542,4.44928596 11.8815654,4.68203596 C11.8654542,4.4460193 11.8469265,4.21000263 11.8251765,3.9707193" id="Fill-8"></path>
                    <path d="M11.7873627,3.63271959 C11.8220016,3.88751959 11.8501961,4.13660292 11.8816127,4.38241959 C11.8501961,4.13660292 11.8220016,3.88751959 11.7873627,3.63271959" id="Fill-10"></path>
                    <path d="M11.7623431,3.45364035 C11.8034265,3.71824035 11.8380654,3.98284035 11.8759265,4.24172368 C11.8380654,3.98284035 11.8034265,3.72150702 11.7623431,3.45364035" id="Fill-12"></path>
                    <path d="M11.5246569,2.32363158 C11.6036013,2.59659758 11.6825458,2.87328246 11.7542402,3.14029825 C11.6825458,2.87328246 11.6036013,2.59659758 11.5246569,2.32363158" id="Fill-14"></path>
                    <path d="M11.837402,4.12803509 C11.8527075,4.37058509 11.8655964,4.60986842 11.8776797,4.84588509 C11.8655964,4.60986842 11.8527075,4.37058509 11.837402,4.12803509" id="Fill-16"></path>
                    <path d="M11.4669412,2.1087193 C11.5491078,2.38425819 11.6272467,2.65597016 11.702969,2.92538596 C11.6272467,2.65597016 11.5491078,2.38425819 11.4669412,2.1087193" id="Fill-18"></path>
                    <path d="M11.7317794,3.26723977 C11.7825294,3.5438155 11.8292516,3.81347683 11.8735572,4.08390643 C11.8292516,3.81347683 11.7825294,3.5438155 11.7317794,3.26723977" id="Fill-20"></path>
                    <path d="M11.5741275,2.51905848 C11.9035395,2.80733104 12.1698571,3.07960606 12.379683,3.33572515 C12.1698571,3.07960606 11.9035395,2.80733104 11.5741275,2.51905848" id="Fill-22"></path>
                    <path d="M11.8456471,4.27689766 C11.8553137,4.52598099 11.8673971,4.77424766 11.8706193,5.01353099 C11.8673971,4.77424766 11.8553137,4.52598099 11.8456471,4.27689766" id="Fill-24"></path>
                    <path d="M9.69415033,4.95441579 C9.6909281,4.89969912 9.68770588,4.84253246 9.68770588,4.78781579 C9.68770588,4.84253246 9.6909281,4.89969912 9.69415033,4.95441579" id="Fill-26"></path>
                    <path d="M9.72485621,5.28763012 C9.71518954,5.17574678 9.70310621,5.06141345 9.69666176,4.94626345 C9.70310621,5.06386345 9.71518954,5.17574678 9.72485621,5.28763012" id="Fill-28"></path>
                    <path d="M9.68652124,4.90504327 C9.68329902,4.81520994 9.68329902,4.72292661 9.68329902,4.63064327 C9.68329902,4.72292661 9.68329902,4.81520994 9.68652124,4.90504327" id="Fill-30"></path>
                    <path d="M9.74883333,5.44215205 C9.73272222,5.32128538 9.71741667,5.19633538 9.70775,5.07220205 C9.71741667,5.19633538 9.73272222,5.32128538 9.74883333,5.44215205" id="Fill-32"></path>
                    <path d="M11.4025441,1.88377778 C11.4871275,2.15676899 11.5725163,2.43052919 11.6514608,2.70044444 C11.5725163,2.43052919 11.4871275,2.15676899 11.4025441,1.88377778" id="Fill-34"></path>
                    <path d="M9.86308007,5.88835292 C9.83488562,5.76666959 9.80588562,5.64580292 9.77769118,5.52166959 C9.80588562,5.64580292 9.83488562,5.76666959 9.86308007,5.88835292" id="Fill-36"></path>
                    <path d="M9.77162582,5.57174415 C9.75309804,5.44679415 9.73698693,5.32266082 9.72168137,5.19199415 C9.73698693,5.32266082 9.75309804,5.44679415 9.77162582,5.57174415" id="Fill-38"></path>
                    <path d="M9.8952549,5.99004942 C9.86142157,5.86918275 9.82919935,5.74423275 9.8010049,5.62009942 C9.82919935,5.74423275 9.86142157,5.86918275 9.8952549,5.99004942" id="Fill-40"></path>
                    <path d="M9.80057843,5.68367047 C9.77882843,5.55953713 9.75627288,5.4354038 9.7377451,5.30718713 C9.7594951,5.4354038 9.77882843,5.55953713 9.80057843,5.68367047" id="Fill-42"></path>
                    <path d="M9.82915196,5.78688567 C9.80337418,5.66601901 9.78162418,5.54433567 9.75665196,5.41693567 C9.78162418,5.54433567 9.80337418,5.66601901 9.82915196,5.78688567" id="Fill-44"></path>
                    <path d="M11.0771471,0.89704386 C11.1963693,1.17083962 11.3131748,1.44261226 11.4259526,1.71371053 C11.3131748,1.44261226 11.1963693,1.17083962 11.0771471,0.89704386" id="Fill-46"></path>
                    <path d="M9.76162745,3.78338743 C9.77451634,3.68130409 9.7898219,3.58248743 9.80271078,3.47713743 C9.7898219,3.58248743 9.77451634,3.68130409 9.76162745,3.78338743" id="Fill-48"></path>
                    <path d="M9.7927598,3.50739708 C9.80484314,3.43389708 9.81773203,3.36366374 9.82739869,3.29016374 C9.8145098,3.36366374 9.80484314,3.43389708 9.7927598,3.50739708" id="Fill-50"></path>
                    <path d="M9.83384314,3.10851988 C9.83384314,3.10525322 9.83384314,3.09871988 9.83706536,3.09545322 C9.83384314,3.09871988 9.83384314,3.10525322 9.83384314,3.10851988" id="Fill-52"></path>
                    <path d="M9.92382843,2.70613246 C9.9262451,2.69306579 9.92946732,2.67754912 9.93268954,2.66448246 C9.92946732,2.67754912 9.9262451,2.69306579 9.92382843,2.70613246" id="Fill-54"></path>
                    <path d="M9.976,2.63956696 C9.99452778,2.56606696 10.0138611,2.49011696 10.0323889,2.41661696 C10.0138611,2.49011696 9.99452778,2.56606696 9.976,2.63956696" id="Fill-56"></path>
                    <path d="M9.70220588,4.34632865 C9.70865033,4.23444532 9.71831699,4.11929532 9.73040033,4.00496199 C9.71831699,4.11929532 9.70865033,4.23444532 9.70220588,4.34632865" id="Fill-58"></path>
                    <path d="M9.69168627,4.50370175 C9.69813072,4.39263509 9.70376961,4.28075175 9.71021405,4.16886842 C9.70376961,4.28075175 9.69813072,4.39590175 9.69168627,4.50370175" id="Fill-60"></path>
                    <path d="M9.6850049,4.65505731 C9.68822712,4.54644064 9.69467157,4.43537398 9.69789379,4.32675731 C9.69467157,4.43537398 9.68822712,4.54644064 9.6850049,4.65505731" id="Fill-62"></path>
                    <path d="M10.0337157,2.49017427 C10.0619101,2.38809094 10.0901046,2.2835576 10.1191046,2.1782076 C10.0901046,2.2835576 10.0619101,2.38809094 10.0337157,2.49017427" id="Fill-64"></path>
                    <path d="M9.73660784,3.99392982 C9.74949673,3.88204649 9.76158007,3.77016316 9.77769118,3.65909649 C9.76158007,3.77016316 9.74949673,3.88204649 9.73660784,3.99392982" id="Fill-66"></path>
                    <path d="M9.71713235,4.1793848 C9.72679902,4.0642348 9.73968791,3.94990146 9.75177124,3.83475146 C9.73968791,3.94990146 9.72679902,4.0642348 9.71713235,4.1793848" id="Fill-68"></path>
                    <path d="M10.5318333,0.842499123 C10.5535833,0.782065789 10.5729167,0.724899123 10.5978889,0.663649123 C10.5729167,0.724899123 10.5535833,0.782065789 10.5318333,0.842499123" id="Fill-70"></path>
                    <path d="M10.7696497,0.0905497076 L10.7672451,0.0905497076 C11.0515942,0.370183722 11.3191108,0.641116937 11.5728007,0.907216374 C11.3191108,0.641116937 11.0539988,0.370183722 10.7696497,0.0905497076" id="Fill-72"></path>
                    <path d="M10.9793431,0.631269006 C11.1146765,0.908263416 11.2435654,1.17841077 11.3732598,1.44793567 C11.2435654,1.17841077 11.1146765,0.908263416 10.9793431,0.631269006" id="Fill-74"></path>
                    <path d="M11.1686961,1.15564064 C11.2790572,1.43282525 11.3829739,1.700794 11.4868905,1.97230731 C11.3829739,1.700794 11.2790572,1.43282525 11.1686961,1.15564064" id="Fill-76"></path>
                    <path d="M11.3308971,1.64809064 C11.4219248,1.92482484 11.5137582,2.19479107 11.6015637,2.46475731 C11.5137582,2.19479107 11.4219248,1.92482484 11.3308971,1.64809064" id="Fill-78"></path>
                    <path d="M11.2531373,1.40581287 C11.3538317,1.67998475 11.4513039,1.95123214 11.5455539,2.22247953 C11.4513039,1.95123214 11.3538317,1.67998475 11.2531373,1.40581287" id="Fill-80"></path>
                    <path d="M10.2458137,1.8373424 C10.2868971,1.70585906 10.3312026,1.57845906 10.3714804,1.4477924 C10.3312026,1.57845906 10.2868971,1.70585906 10.2458137,1.8373424" id="Fill-82"></path>
                    <path d="M10.1686225,2.07328743 C10.2064837,1.94915409 10.2443448,1.82175409 10.2822059,1.69680409 C10.2443448,1.82175409 10.2064837,1.94915409 10.1686225,2.07328743" id="Fill-84"></path>
                    <path d="M10.0981127,2.29341491 C10.1295294,2.17581491 10.1641683,2.05739825 10.1988072,1.93979825 C10.1641683,2.05739825 10.1295294,2.17581491 10.0981127,2.29341491" id="Fill-86"></path>
                    <path d="M10.3313922,1.56314298 C10.3724755,1.43819298 10.4127533,1.31732632 10.4538366,1.19319298 C10.4127533,1.31732632 10.3724755,1.43819298 10.3313922,1.56314298" id="Fill-88"></path>
                    <path d="M10.4252157,1.24449971 C10.4630768,1.14241637 10.5009379,1.03706637 10.5355768,0.931716374 C10.4977157,1.03706637 10.4630768,1.14241637 10.4252157,1.24449971" id="Fill-90"></path>
                    <path d="M9.68273039,4.78687018 C9.68273039,4.68478684 9.68595261,4.58270351 9.68595261,4.48062018 C9.68595261,4.58270351 9.68273039,4.68478684 9.68273039,4.78687018" id="Fill-92"></path>
                    <path d="M4.50447712,7.40306901 C4.2395667,7.19890234 3.97009869,6.99800234 3.69892157,6.79710234 C3.97009869,6.99800234 4.2395667,7.19890234 4.50447712,7.40306901" id="Fill-94"></path>
                    <path d="M4.81821732,7.52933713 C4.55143398,7.3415038 4.28465064,7.14958713 4.01266176,6.96502047 C4.28465064,7.14958713 4.55143398,7.3415038 4.81821732,7.52933713" id="Fill-96"></path>
                    <path d="M5.11020752,7.80031287 C4.84324676,7.57736287 4.576286,7.3511462 4.30465196,7.1306462 C4.576286,7.3511462 4.84324676,7.57736287 5.11020752,7.80031287" id="Fill-98"></path>
                    <path d="M16.8409444,7.55101462 C16.7249444,7.62696462 16.6113611,7.70373129 16.4985833,7.78376462 C16.6113611,7.70373129 16.7249444,7.62696462 16.8409444,7.55101462" id="Fill-100"></path>
                    <path d="M4.10132026,7.41175146 C3.83664836,7.13568429 3.56899843,6.86192409 3.29576471,6.5950848 C3.56899843,6.86192409 3.83664836,7.13568429 4.10132026,7.41175146" id="Fill-102"></path>
                    <path d="M18.152531,6.96502047 C17.8798815,7.14958713 17.6150592,7.33823713 17.3469755,7.52607047 C17.6150592,7.33823713 17.8798815,7.14958713 18.152531,6.96502047" id="Fill-104"></path>
                    <path d="M17.8510163,7.1306462 C17.5779572,7.3413462 17.311709,7.5520462 17.0454608,7.76192953 C17.311709,7.5520462 17.5779572,7.3413462 17.8510163,7.1306462" id="Fill-106"></path>
                    <path d="M18.4408252,6.79708801 C18.1690783,6.99798801 17.90018,7.19888801 17.6352696,7.40305468 C17.90018,7.19888801 18.1690783,6.99798801 18.4408252,6.79708801" id="Fill-108"></path>
                    <path d="M18.7373644,6.5950848 C18.4647435,6.86192409 18.1969709,7.13568429 17.9318088,7.41175146 C18.1969709,7.13568429 18.4647435,6.86192409 18.7373644,6.5950848" id="Fill-110"></path>
                    <path d="M5.35424346,7.80678889 C5.2285768,7.72103889 5.09968791,7.63447222 4.97321569,7.54872222 C5.09968791,7.63447222 5.2285768,7.72103889 5.35424346,7.80678889" id="Fill-112"></path>
                    <path d="M17.2066193,7.38309649 C17.0487304,7.48191316 16.8884248,7.58072982 16.7345637,7.68281316 C16.8884248,7.58072982 17.0487304,7.48191316 17.2066193,7.38309649" id="Fill-114"></path>
                    <path d="M5.21682516,7.70281433 C5.05007516,7.59419766 4.88010294,7.48884766 4.71335294,7.38023099 C4.88010294,7.48884766 5.05007516,7.59419766 5.21682516,7.70281433" id="Fill-116"></path>
                    <path d="M0.680789216,11.7627652 C0.495511438,11.7023319 0.306205882,11.6443485 0.117705882,11.5839152 C0.306205882,11.6443485 0.495511438,11.7023319 0.680789216,11.7627652" id="Fill-118"></path>
                    <path d="M1.26007843,11.982033 C1.22543954,11.969783 1.19080065,11.9534497 1.15616176,11.940383 C1.19080065,11.9534497 1.22543954,11.969783 1.26007843,11.982033" id="Fill-120"></path>
                    <path d="M1.82657353,12.2134936 C1.69768464,12.1587769 1.56879575,12.1048769 1.43990686,12.0534269 C1.56879575,12.1048769 1.69768464,12.1587769 1.82657353,12.2134936" id="Fill-122"></path>
                    <path d="M1.21283497,11.9535357 C1.07105719,11.9020857 0.923640523,11.8514523 0.781862745,11.803269 C0.923640523,11.8514523 1.07105719,11.9020857 1.21283497,11.9535357" id="Fill-124"></path>
                    <path d="M2.08093954,12.3308787 C1.96171732,12.2769787 1.84168954,12.2255287 1.7192451,12.1716287 C1.84168954,12.2255287 1.96171732,12.2769787 2.08093954,12.3308787" id="Fill-126"></path>
                    <path d="M1.03191667,11.8862825 C0.836972222,11.8193158 0.642027778,11.7556158 0.447083333,11.6886491 C0.642027778,11.7556158 0.836972222,11.8193158 1.03191667,11.8862825" id="Fill-128"></path>
                    <path d="M2.13415359,12.3605939 C2.09307026,12.3442605 2.05520915,12.3254772 2.01734804,12.3058772 C2.05520915,12.3254772 2.09629248,12.3442605 2.13415359,12.3605939" id="Fill-130"></path>
                    <path d="M4.9860098,14.5551491 C4.99567647,14.5649491 5.00212092,14.5747491 5.00856536,14.5845491 L5.02064869,14.5812825 C5.00856536,14.5714825 4.99889869,14.5616825 4.9860098,14.5551491" id="Fill-132"></path>
                    <path d="M19.8749624,11.2806023 L19.8702598,11.2806023 C20.1467727,11.283869 20.4150561,11.3091857 20.6758154,11.3606357 C20.4159967,11.3091857 20.1486538,11.2806023 19.8749624,11.2806023" id="Fill-134"></path>
                    <path d="M20.3845833,11.2956462 C20.5005833,11.3021795 20.6141667,11.3119795 20.7301667,11.3217795 C20.6141667,11.3119795 20.5005833,11.3021795 20.3845833,11.2956462" id="Fill-136"></path>
                    <path d="M20.3966667,24.4865322 C20.4095556,24.5338988 20.4224444,24.5886155 20.4345278,24.6392488 C20.4224444,24.5886155 20.4095556,24.5371655 20.3966667,24.4865322" id="Fill-138"></path>
                    <path d="M20.2573529,23.9559854 C20.5119085,24.2260395 20.7511585,24.4989844 20.9807418,24.772652 C20.7511585,24.4989844 20.5119085,24.2260395 20.2573529,23.9559854" id="Fill-140"></path>
                    <path d="M19.528799,37.8459094 C19.8042137,37.5768556 20.0744562,37.3046334 20.3343546,37.0292427 C20.0744562,37.3046334 19.8042137,37.5768556 19.528799,37.8459094" id="Fill-142"></path>
                    <path d="M2.63468791,37.8453363 C2.35822124,37.5762702 2.08884346,37.304048 1.82913235,37.0286696 C2.08884346,37.304048 2.35822124,37.5762702 2.63468791,37.8453363" id="Fill-144"></path>
                    <path d="M7.55132516,44.073752 C7.28207299,43.894902 7.01208715,43.716052 6.74576961,43.5314854 C7.01208715,43.716052 7.28207299,43.894902 7.55132516,44.073752" id="Fill-146"></path>
                    <path d="M15.4288056,43.5314854 C15.1618963,43.725852 14.892918,43.916952 14.62325,44.105602 C14.892918,43.916952 15.1618963,43.725852 15.4288056,43.5314854" id="Fill-148"></path>
                    <path d="M7.76896732,44.3077915 C7.5004488,44.1011749 7.22962045,43.8839415 6.96341176,43.6634415 C7.22962045,43.8839415 7.49813897,44.0979082 7.76896732,44.3077915" id="Fill-150"></path>
                    <path d="M15.1683742,43.6624386 C14.9009406,43.8984553 14.6318796,44.1246719 14.3628186,44.3476219 C14.6318796,44.1246719 14.9009406,43.8984553 15.1683742,43.6624386" id="Fill-152"></path>
                    <path d="M7.9839085,44.4369681 C7.71325888,44.2262681 7.44474036,44.0090348 7.17835294,43.7860848 C7.44474036,44.0090348 7.71325888,44.2262681 7.9839085,44.4369681" id="Fill-154"></path>
                </g>
                <g id="Group-162" transform="translate(0.000000, 0.000143)">
                    <path d="M5.15484477,36.3509795 C4.91237255,36.0815005 4.68601144,35.80922 4.48462255,35.5343129 C4.68601144,35.80922 4.91237255,36.0808001 5.15484477,36.3509795" id="Fill-157" fill="#1D1C1B"></path>
                    <g id="Group-161">
                        <mask id="mask-2" fill="white">
                            <use xlink:href="#path-1"></use>
                        </mask>
                        <g id="Clip-160"></g>
                        <path d="M25.4432353,13.9221608 C22.2752696,14.8249357 20.8531324,16.156962 20.2418578,16.9959795 L17.8561814,15.9644006 C17.8551863,15.9649737 17.854049,15.9655468 17.8529118,15.9661199 L17.3358873,15.7427544 C19.4344069,14.3974035 21.5239706,13.7162749 23.5625,13.7162749 L23.5691814,13.7162749 C23.734652,13.7162749 23.8962843,13.7212895 24.0533676,13.7303158 C24.0623235,13.7307456 24.0717059,13.7307456 24.0806618,13.7313187 C24.1011324,13.7324649 24.1211765,13.7341842 24.1416471,13.7359035 C24.6192941,13.7665643 25.0545784,13.8337602 25.4432353,13.9200117 C25.4422402,13.9205848 25.4411029,13.9211579 25.4393971,13.9211579 C25.4411029,13.9215877 25.4422402,13.9215877 25.4432353,13.9221608 L25.4432353,13.9221608 Z M23.4342745,24.7982982 L23.0710637,25.0556199 L21.2946716,26.3160088 L16.6340588,22.9703977 L15.8355637,22.3972982 L20.0068725,19.402424 C21.4295784,20.754652 22.6113284,22.6110643 23.4342745,24.7982982 L23.4342745,24.7982982 Z M24.0927451,26.9222047 C24.0950196,26.9305146 24.0972941,26.940114 24.0994265,26.9489971 C24.2293578,27.4751023 24.3405245,28.0152485 24.4303676,28.567 L24.1649608,28.376731 L23.3037745,27.7583567 L22.6690441,27.3027427 L23.9534314,26.3916579 C23.9977843,26.552269 24.0405735,26.7140263 24.0810882,26.8773596 C24.0850686,26.8925468 24.0894755,26.9070175 24.0927451,26.9222047 L24.0927451,26.9222047 Z M21.2891275,28.2821696 L24.6697598,30.7088158 C24.6936422,31.0956579 24.7058676,31.4873713 24.7097059,31.8825234 C24.7102745,31.9512953 24.712549,32.0196374 24.712549,32.0884094 C24.712549,32.5278333 24.6991863,32.9620994 24.6741667,33.391924 L21.1752598,35.922731 L15.846652,32.1427105 L21.2891275,28.2821696 Z M23.9284118,37.8759971 L22.5534706,36.9004386 L24.4425931,35.5343129 C24.3143676,36.3413801 24.1416471,37.1238041 23.9284118,37.8759971 L23.9284118,37.8759971 Z M23.2164902,39.9282661 C22.4069069,41.8809591 21.3051912,43.5436637 20.0001912,44.7817018 L16.6212647,42.3371462 L15.8288824,41.7640468 L21.1842157,37.8910409 L23.4020049,39.4649152 C23.3448578,39.6143509 23.2854363,39.7620673 23.2248775,39.9080643 C23.2220343,39.9147982 23.2193333,39.9215322 23.2164902,39.9282661 L23.2164902,39.9282661 Z M18.4853676,45.9671579 C18.4303529,46.0012573 18.3749118,46.0347836 18.3193284,46.0678801 C18.3032647,46.0779094 18.2866324,46.0879386 18.27,46.0981111 C18.1999167,46.1395175 18.1294069,46.1792047 18.0588971,46.2183187 C18.0583284,46.2188918 18.0577598,46.2188918 18.0571912,46.2194649 C16.9382745,46.8379825 15.7278088,47.1782602 14.4633235,47.1782602 C13.2822843,47.1782602 12.1477304,46.8809649 11.0910784,46.3370936 C11.0905098,46.3365205 11.0899412,46.3365205 11.0888039,46.3359474 C11.0171569,46.2989825 10.9455098,46.2608713 10.8744314,46.2217573 C10.8688873,46.2183187 10.8633431,46.2155965 10.857799,46.2121579 C10.7916961,46.1753363 10.7250245,46.1377982 10.6594902,46.099114 C10.6390196,46.0867924 10.6184069,46.074614 10.5979363,46.0622924 C10.5457647,46.0303421 10.493451,45.999538 10.441848,45.9665848 C10.3669314,45.9195906 10.2924412,45.8714503 10.2186618,45.8215906 L14.4633235,42.7517836 L18.7081275,45.8221637 C18.6347745,45.8718801 18.5598578,45.9195906 18.4853676,45.9671579 L18.4853676,45.9671579 Z M5.70845098,39.9232515 C5.70688725,39.9188099 5.70461275,39.9142251 5.70290686,39.9092105 C5.64192157,39.7626404 5.5825,39.6143509 5.52521078,39.4643421 L7.74314216,37.8910409 L13.0979069,41.7640468 L8.92645588,44.7811287 C7.62088725,43.5420877 6.51860294,41.8776637 5.70845098,39.9232515 L5.70845098,39.9232515 Z M4.60289706,36.2025468 C4.56010784,35.9814737 4.52016176,35.7592544 4.48462255,35.5343129 L6.37317647,36.9004386 L4.99880392,37.875424 C4.84726471,37.3404357 4.71676471,36.789114 4.60730392,36.2248977 C4.60616667,36.2177339 4.60460294,36.2104269 4.60289706,36.2025468 L4.60289706,36.2025468 Z M4.21466667,32.0884094 C4.21466667,32.024652 4.21694118,31.9614678 4.2175098,31.8975673 C4.22077941,31.4974006 4.23357353,31.1012456 4.25802451,30.7088158 L7.63865686,28.2821696 L13.0807059,32.1427105 L12.2726863,32.7158099 L7.75195588,35.922731 L4.25304902,33.391924 C4.22802941,32.9620994 4.21466667,32.5278333 4.21466667,32.0884094 L4.21466667,32.0884094 Z M4.97378431,26.3916579 L6.25817157,27.3027427 L4.7622549,28.376731 L4.49684804,28.567 C4.61896078,27.8188187 4.77888725,27.0922719 4.97378431,26.3916579 L4.97378431,26.3916579 Z M8.92034314,19.402424 L13.0917941,22.3972982 L7.63311275,26.3154357 L5.85615196,25.0551901 L5.49308333,24.7977251 C6.31659804,22.6104912 7.49763725,20.754652 8.92034314,19.402424 L8.92034314,19.402424 Z M5.99219608,14.8765146 C5.90832353,14.8345351 5.82231863,14.7931287 5.73403922,14.7511491 C5.72735784,14.7482836 5.72010784,14.7449883 5.71342647,14.7415497 C5.63680392,14.705731 5.55904412,14.6704854 5.47915196,14.6352398 C5.45811275,14.6257836 5.43693137,14.6167573 5.41532353,14.6073012 C5.34637745,14.5770702 5.27586765,14.5468392 5.20422059,14.5171813 C5.18147549,14.5075819 5.15873039,14.4981257 5.13598529,14.4886696 C5.04941176,14.4532807 4.9609902,14.4180351 4.87057843,14.3833626 C4.86446569,14.3806404 4.85892157,14.378348 4.8522402,14.3760556 C4.7550049,14.3386608 4.65563725,14.3016959 4.5539951,14.2653041 C4.52897549,14.2562778 4.50352941,14.2473947 4.47794118,14.2383684 C4.40188725,14.211576 4.32526471,14.1852135 4.24636765,14.1589942 C4.21253431,14.1472456 4.17756373,14.1360702 4.14316176,14.1243216 C4.06753431,14.0996784 3.99148039,14.0750351 3.91372059,14.0509649 C3.88045588,14.0403626 3.84761765,14.0301901 3.81378431,14.0195877 C3.70389706,13.9860614 3.59230392,13.9529649 3.47786765,13.9200117 C4.01820588,13.7996608 4.64838725,13.7162749 5.35860294,13.7162749 C7.39713235,13.7162749 9.48612745,14.3974035 11.5852157,15.7427544 L8.68606863,16.9959795 C8.68493137,16.9942602 8.68322549,16.9925409 8.68208824,16.9908216 C8.26286765,16.4171491 7.46494118,15.6146667 5.99219608,14.8765146 L5.99219608,14.8765146 Z M19.0050931,37.4920205 L14.4633235,40.7767398 L9.92155392,37.4920205 L9.12192157,36.9133333 L14.4638922,33.1238567 L19.8052941,36.9133333 L19.0050931,37.4920205 Z M19.1112843,27.8646667 L14.4638922,31.1617076 L9.81664216,27.8646667 L9.01302941,27.2948626 L14.4638922,23.3823129 L19.9141863,27.2948626 L19.1112843,27.8646667 Z M17.7468627,16.9960483 C17.7492936,16.9940883 17.7512383,16.9921283 17.7538313,16.9908216 C17.7518866,16.9927816 17.7505901,16.9947416 17.7492936,16.9967016 L17.7468627,16.9960483 Z M18.7146667,18.360386 L17.839549,18.9883596 L14.4638922,21.4122836 L11.0876667,18.9883596 L10.212549,18.3598129 C11.5080245,17.4866959 12.9479314,16.9992749 14.4638922,16.9992749 C15.9792843,16.9992749 17.4191912,17.4866959 18.7146667,18.360386 L18.7146667,18.360386 Z M8.91536765,10.1523129 C8.85651471,10.1109064 8.79709314,10.0706462 8.73653431,10.0296696 C8.71435784,10.0146257 8.69161275,9.9994386 8.66929412,9.98439474 C8.61271569,9.94685673 8.55613725,9.90946199 8.49827941,9.87249708 C8.46885294,9.85344152 8.43885784,9.83495906 8.40943137,9.81590351 C8.3394902,9.77177485 8.26841176,9.72750292 8.19676471,9.68380409 C8.13179902,9.64469006 8.06683333,9.60500292 8.00073039,9.56631871 C7.9624902,9.54396784 7.92297059,9.52204678 7.88473039,9.49969591 C7.82644608,9.46674269 7.76816176,9.4330731 7.7087402,9.40069298 C7.6714951,9.37991813 7.63368137,9.35985965 7.5960098,9.3390848 C7.52990686,9.30326608 7.46266667,9.26802047 7.395,9.23277485 C7.36329902,9.2160117 7.33102941,9.19924854 7.29947059,9.1829152 C7.19839706,9.13147953 7.09618627,9.08047368 6.99184314,9.03075731 C7.3650049,9.00382164 7.75536765,8.98705848 8.15184314,8.98705848 C11.2869706,8.98705848 13.153348,9.9424152 13.6992304,11.826193 C13.798598,12.1687632 14.1096373,12.4038772 14.4633235,12.4038772 C14.8170098,12.4038772 15.1286176,12.1687632 15.2279853,11.826193 C15.773299,9.9424152 17.6396765,8.98705848 20.7755147,8.98705848 C21.1719902,8.98705848 21.5617843,9.00382164 21.9349461,9.03075731 C21.8310294,9.08047368 21.7289608,9.13147953 21.6278873,9.1829152 C21.5956176,9.19924854 21.5639167,9.2160117 21.5317892,9.23277485 C21.464549,9.26802047 21.397451,9.30326608 21.331348,9.3390848 C21.2929657,9.35985965 21.2557206,9.37991813 21.218049,9.40069298 C21.1591961,9.4330731 21.1009118,9.46616959 21.0430539,9.49912281 C21.0042451,9.52161696 20.9648676,9.54396784 20.9259167,9.56631871 C20.8637941,9.60328363 20.802098,9.64024854 20.7409706,9.67707018 C20.6637794,9.7242076 20.5882941,9.77120175 20.5133775,9.81876901 C20.4855147,9.83610526 20.4577941,9.85344152 20.4300735,9.87135088 C20.3712206,9.90946199 20.3129363,9.94800292 20.2550784,9.98611404 C20.2346078,10.0000117 20.2139951,10.0134795 20.1940931,10.0269474 C20.1312598,10.0695 20.0697059,10.1114795 20.0085784,10.1540322 C17.659152,11.7965351 16.4879216,13.7459327 16.0325931,14.6631784 L12.8940539,14.6631784 C12.4387255,13.7459327 11.2665,11.7955322 8.91536765,10.1523129 L8.91536765,10.1523129 Z M13.3810833,6.82002632 C13.381652,6.80097076 13.3827892,6.78148538 13.3833578,6.76242982 C13.3843529,6.72990643 13.3860588,6.69695322 13.3877647,6.66385673 C13.388902,6.64437135 13.3898971,6.62416959 13.3910343,6.60454094 C13.3933088,6.57044152 13.3954412,6.53576901 13.3982843,6.50052339 C13.3994216,6.48089474 13.4011275,6.46069298 13.4032598,6.4406345 C13.4061029,6.40424269 13.4093725,6.36785088 13.4132108,6.33088596 C13.4149167,6.31068421 13.4171912,6.29062573 13.4193235,6.27042398 C13.4233039,6.23245614 13.4277108,6.19262573 13.4326863,6.1535117 C13.4349608,6.13388304 13.4370931,6.11482749 13.4399363,6.09519883 C13.4454804,6.05278947 13.4510245,6.01023684 13.4571373,5.96653801 C13.4599804,5.94862865 13.4621127,5.9312924 13.4649559,5.91338304 C13.4722059,5.86409649 13.480451,5.81438012 13.4888382,5.76394737 C13.4909706,5.75105263 13.4926765,5.73873099 13.494951,5.72583626 C13.5060392,5.66265205 13.5171275,5.59889474 13.5299216,5.53341813 C13.5299216,5.53284503 13.5299216,5.53169883 13.5304902,5.53112573 C13.5559363,5.3945848 13.5859314,5.25345906 13.6199069,5.10746199 C13.6203333,5.10516959 13.620902,5.10244737 13.6214706,5.10015497 C13.6376765,5.03195614 13.6543088,4.96189474 13.6715098,4.89140351 C13.6747794,4.87850877 13.6787598,4.86518421 13.6820294,4.85228947 C13.697098,4.79182749 13.7131618,4.7307924 13.7297941,4.66861111 C13.734201,4.65070175 13.7397451,4.63236257 13.7448627,4.61388012 C13.7603578,4.55556725 13.7769902,4.49682456 13.7936225,4.43750877 C13.7997353,4.41687719 13.805848,4.39610234 13.8119608,4.37547076 C13.8285931,4.31715789 13.8463627,4.2584152 13.864701,4.19852632 C13.8713824,4.17674854 13.8780637,4.15439766 13.8847451,4.13247661 C13.9030833,4.07258772 13.9225588,4.01269883 13.9418922,3.95180702 C13.9491422,3.92873977 13.9563922,3.90638889 13.9640686,3.88346491 C13.9841127,3.82071053 14.0052941,3.75752632 14.026902,3.69376901 C14.0347206,3.67242105 14.0412598,3.65064327 14.0490784,3.6288655 C14.0723922,3.56109649 14.0968431,3.49232456 14.1212941,3.42226316 C14.1279755,3.4043538 14.1340882,3.38644444 14.1407696,3.36796199 C14.1684902,3.28959064 14.1979167,3.21078947 14.2279118,3.13069883 C14.23175,3.12066959 14.2351618,3.11006725 14.239,3.09989474 C14.3089412,2.91406725 14.3834314,2.72322515 14.4633235,2.52622222 C14.5305637,2.69199123 14.5932549,2.85260234 14.6532451,3.01034795 C14.6604951,3.02940351 14.6683137,3.04845906 14.6748529,3.06694152 C14.6987353,3.13069883 14.722049,3.19288012 14.7449363,3.25549123 C14.7543186,3.2812807 14.763701,3.3075 14.7732255,3.33271637 C14.7942647,3.39145906 14.8143088,3.44862573 14.8347794,3.50622222 C14.8448725,3.53473392 14.8548235,3.56338889 14.8642059,3.59190058 C14.8836814,3.64734795 14.9020196,3.70207895 14.9203578,3.75638012 C14.9297402,3.78489181 14.9392647,3.81354678 14.9486471,3.84205848 C14.9664167,3.89578655 14.9836176,3.94894152 15.0003922,4.00152339 C15.0092059,4.02960526 15.0181618,4.05697076 15.0264069,4.08433626 C15.0430392,4.1364883 15.0586765,4.18849708 15.0741716,4.23993275 C15.0825588,4.26629532 15.0902353,4.29308772 15.0980539,4.31945029 C15.1129804,4.37088596 15.128049,4.42189181 15.142549,4.47218129 C15.1490882,4.49625146 15.1557696,4.52032164 15.162451,4.54496491 C15.176951,4.59654386 15.1907402,4.64740643 15.2046716,4.69783918 C15.2102157,4.71847076 15.2151912,4.73867251 15.2207353,4.75930409 C15.2346667,4.81245906 15.2480294,4.86518421 15.2608235,4.91719298 C15.2640931,4.92951462 15.2669363,4.94240936 15.2702059,4.95473099 C15.3340343,5.21549123 15.3856373,5.4617807 15.4257255,5.69402924 C15.4262941,5.69675146 15.4272892,5.70019006 15.4278578,5.70348538 C15.4368137,5.75492105 15.4446324,5.8053538 15.4523088,5.85521345 C15.4545833,5.86696199 15.4562892,5.87813743 15.4578529,5.88931287 C15.4651029,5.93630702 15.4717843,5.98215497 15.4778971,6.0281462 C15.4796029,6.04147076 15.4817353,6.0549386 15.4834412,6.06840643 C15.4895539,6.11310819 15.4945294,6.15680702 15.4995049,6.20050585 C15.5012108,6.21397368 15.5029167,6.22729825 15.5044804,6.24076608 C15.5090294,6.28389181 15.5134363,6.32644444 15.5172745,6.36842398 C15.5184118,6.38074561 15.519549,6.39364035 15.5206863,6.40639181 C15.5245245,6.44837135 15.5277941,6.49035088 15.5312059,6.53118421 C15.5317745,6.54250292 15.5323431,6.55310526 15.5334804,6.5642807 C15.5361814,6.60626023 15.5384559,6.64823977 15.5405882,6.6896462 C15.5405882,6.69752632 15.5411569,6.70526316 15.5417255,6.71257018 C15.5434314,6.75684211 15.5451373,6.79982456 15.5461324,6.84237719 L15.5461324,6.85025731 C15.5617696,7.51347661 15.4679461,8.01049708 15.3323284,8.37814035 C15.1114167,8.97817544 14.7604314,9.29595906 14.4633235,9.46387719 C14.1662157,9.29595906 13.8153725,8.97817544 13.5943186,8.37814035 C13.5660294,8.3014883 13.5398725,8.21867544 13.5159902,8.13027485 C13.5148529,8.12683626 13.5137157,8.12411404 13.5132892,8.12124854 C13.5077451,8.09947076 13.5020588,8.07812281 13.4965147,8.05577193 C13.4938137,8.04459649 13.4909706,8.03342105 13.4882696,8.02224561 C13.4832941,8.00089766 13.4781765,7.97911988 13.4737696,7.95734211 C13.4705,7.94444737 13.4676569,7.93097953 13.4655245,7.9180848 C13.4609755,7.89630702 13.4565686,7.87495906 13.4521618,7.85260819 C13.4498873,7.83856725 13.4471863,7.82352339 13.4443431,7.80890936 C13.4405049,7.78713158 13.4370931,7.7653538 13.4332549,7.74285965 C13.4309804,7.72666959 13.4282794,7.71105263 13.4260049,7.69428947 C13.4233039,7.67236842 13.4198922,7.65059064 13.4171912,7.62823977 C13.414348,7.61033041 13.4127843,7.59127485 13.4105098,7.5727924 C13.4076667,7.55158772 13.4055343,7.53023977 13.4032598,7.50788889 C13.4011275,7.48654094 13.3994216,7.46419006 13.3971471,7.44183918 C13.3954412,7.42221053 13.3938775,7.40258187 13.3921716,7.38195029 C13.388902,7.33997076 13.3860588,7.29684503 13.3843529,7.25271637 C13.3837843,7.24311696 13.3837843,7.23308772 13.3833578,7.2234883 C13.381652,7.18766959 13.3805147,7.15185088 13.3793775,7.11445614 C13.3793775,7.09869591 13.3793775,7.08250585 13.3788088,7.06688889 C13.3788088,7.0349386 13.3782402,7.0029883 13.3782402,6.97003509 C13.3782402,6.95269883 13.3788088,6.93421637 13.3788088,6.91630702 C13.3799461,6.88435673 13.3805147,6.85254971 13.3810833,6.82002632 L13.3810833,6.82002632 Z M28.5957059,13.505231 C28.516951,13.4482076 26.6349363,12.1117398 23.5691814,12.1117398 C22.1053922,12.1117398 20.6305147,12.4121871 19.1550686,13.0031959 C20.4078971,11.6769006 22.3919804,10.2205117 25.3988824,9.50585673 C25.7559804,9.42132456 26.0091618,9.10239474 26.0124314,8.73303216 C26.0164118,8.36366959 25.769201,8.03958187 25.4143775,7.94774269 C25.3249608,7.92481871 23.2009951,7.38252339 20.7755147,7.38252339 C19.2467598,7.38252339 18.0344461,7.59457018 17.0733235,7.94215497 C17.34925,6.05837719 16.7500588,3.54032164 15.2841373,0.435842105 C15.0325196,-0.145567251 13.8952647,-0.145567251 13.642652,0.436415205 C12.1771569,3.54089474 11.5779657,6.05837719 11.8540343,7.94215497 C10.8927696,7.59457018 9.68059804,7.38252339 8.15184314,7.38252339 C5.72565196,7.38252339 3.6022549,7.92481871 3.51283824,7.94774269 C3.15801471,8.03958187 2.91137255,8.36366959 2.91478431,8.73303216 C2.91805392,9.10239474 3.17137745,9.42132456 3.52833333,9.50585673 C6.56636765,10.2278187 8.55272549,11.6869298 9.79944118,13.0139415 C8.31503922,12.4161988 6.83077941,12.1117398 5.35803431,12.1117398 C2.29227941,12.1117398 0.410406863,13.4482076 0.331509804,13.505231 C0.069372549,13.6949269 -0.0527401961,14.0257485 0.0216078431,14.3419561 C0.0960980392,14.6587368 0.35254902,14.8982924 0.671406863,14.949155 C6.40544608,15.8648246 7.53601961,18.1314327 7.60652941,18.2864561 C7.61989216,18.3295819 7.63709314,18.3698421 7.65642647,18.4079532 C7.06903431,18.9905088 6.51533333,19.652152 6.00172059,20.3908772 C3.8227402,23.5261608 2.62265196,27.6805585 2.62265196,32.0889825 C2.62265196,36.4969766 3.8227402,40.6508012 6.00172059,43.7860848 C8.2412598,47.0086228 11.2464559,48.7833684 14.4638922,48.7833684 C17.6813284,48.7833684 20.6866667,47.0086228 22.9256373,43.7860848 C25.1046176,40.6508012 26.3045637,36.4969766 26.3045637,32.0889825 C26.3045637,27.6805585 25.1046176,23.5261608 22.9256373,20.3908772 C22.412451,19.6525819 21.8583235,18.9910819 21.2713578,18.4085263 C21.2908333,18.3698421 21.3080343,18.3295819 21.3212549,18.2864561 C21.3917647,18.1314327 22.5224804,15.8648246 28.255951,14.949155 C28.5746667,14.8988655 28.8311176,14.6587368 28.9056078,14.3419561 C28.9799559,14.0257485 28.8578431,13.6949269 28.5957059,13.505231 L28.5957059,13.505231 Z" id="Fill-159" fill="#1D1C1B" mask="url(#mask-2)"></path>
                    </g>
                </g>
                <path d="M17.7468627,17.0170982 L17.7589461,17.0203649 C17.7653905,17.0105649 17.771835,17.0007649 17.7815016,16.9909649 C17.7686127,16.9974982 17.7589461,17.0072982 17.7468627,17.0170982" id="Fill-163" fill="#1D1C1B"></path>
            </g>
        </g>
    </g>
</svg>