<?xml version="1.0" encoding="UTF-8"?>
<svg width="223px" height="32px" viewBox="0 0 223 32" version="1.1" xmlns="http://www.w3.org/2000/svg" xmlns:xlink="http://www.w3.org/1999/xlink">
    <!-- Generator: Sketch 43.1 (39012) - http://www.bohemiancoding.com/sketch -->
    <title>WITH LOVE FINAL LOGO-01</title>
    <desc>Created with Sketch.</desc>
    <defs></defs>
    <g id="Page-1" stroke="none" stroke-width="1" fill="none" fill-rule="evenodd">
        <g id="Homepage" transform="translate(-90.000000, -42.000000)" fill-rule="nonzero">
            <g id="WITH-LOVE-FINAL-LOGO-01" transform="translate(90.000000, 42.000000)">
                <path d="M218.861191,20.9779439 C218.861191,20.9779439 216.860993,18.5821308 215.786216,20.3723364 C214.714692,22.1640374 219.326119,25.2279626 221.251786,26.0243738 C221.251786,26.0243738 222.794745,23.112972 222.856263,20.0849346 C222.918667,17.0586916 219.035983,15.6411215 218.861191,20.9779439" id="Shape" fill="#D32027"></path>
                <g id="Group" fill="#231F20">
                    <path d="M37.4193408,19.1042991 C38.1214655,19.4419439 38.8942759,19.4865047 39.7374761,19.2373832 C39.9826578,19.1674019 40.1586326,19.0337196 40.2645133,18.8384299 C40.3700981,18.6428411 40.4041101,18.4580187 40.3700981,18.2782804 C40.3343117,18.1018318 40.2375995,17.9508037 40.0802573,17.8266916 C39.9220279,17.7016822 39.7028727,17.6571215 39.4222003,17.6918131 C39.1054456,17.7288972 38.7804098,17.7465421 38.4470928,17.7465421 C38.1131844,17.7465421 37.9460822,17.5518505 37.9460822,17.1594766 C37.9460822,16.8762617 37.8671154,16.662729 37.7085902,16.5206729 C37.551248,16.379215 37.3746817,16.2993645 37.1821446,16.2814206 C36.9890159,16.2643738 36.8136326,16.3262804 36.6556989,16.4677383 C36.496878,16.6100935 36.4004615,16.8053832 36.3655623,17.0536075 C36.3655623,18.0838879 36.7160332,18.7672523 37.4193408,19.1042991 Z" id="Shape"></path>
                    <path d="M100.746313,23.712 C100.570634,23.712 100.411813,23.7661308 100.272216,23.8722991 C99.8507639,24.1576075 99.3583302,24.4587664 98.7975769,24.7781682 C98.2344576,25.0978692 97.6198767,25.3999252 96.9529469,25.6843364 C96.2857215,25.9684486 95.6093276,26.199028 94.9246525,26.3763738 C94.2402732,26.5549159 93.5632878,26.6431402 92.8960623,26.6431402 C92.3344218,26.6431402 91.8159615,26.5719626 91.342752,26.4296075 C90.8683594,26.2881495 90.4377387,26.0393271 90.0511857,25.6843364 C89.7001233,25.3643364 89.3573422,24.964785 89.024321,24.4853832 C88.6901167,24.0053832 88.3301817,23.5358505 87.9436286,23.0734953 C87.5570756,22.6123364 87.1095968,22.212785 86.6006008,21.8739439 C86.0904218,21.5380935 85.5024589,21.3688224 84.8355292,21.3688224 C84.2037944,21.3688224 83.5534271,21.5644112 82.8864973,21.9540935 C82.2186804,22.3455701 81.5505676,22.8330467 80.8842294,23.419215 C80.2167082,24.0053832 79.5840862,24.6274393 78.9875464,25.284486 C78.3901194,25.9424299 77.8450411,26.5366729 77.3546777,27.0693084 C77.1080172,26.7851963 76.8536671,26.4394766 76.5904443,26.0294579 C76.3269257,25.6218318 76.0548302,25.0978692 75.7735663,24.4587664 C77.5297653,22.9673271 79.0573448,21.307514 80.3571923,19.4781308 C81.656744,17.6490467 82.7723355,15.7042243 83.7030796,13.6436636 C84.6329363,11.5842991 85.3711432,9.4711028 85.9162215,7.30407477 C86.459821,5.13794393 86.8721048,2.98915888 87.1539602,0.857719626 C87.1539602,0.431551402 86.9244536,0.218317757 86.4686936,0.218317757 L86.3116472,0.218317757 C84.0621273,0.610093458 82.0867732,1.39005607 80.3841061,2.56209346 C78.6799602,3.73383178 77.2485013,5.12837383 76.0900252,6.74452336 C75.0365424,8.21263551 74.2258753,9.79857944 73.6512215,11.5011589 L66.0269284,11.4598879 C66.5536698,10.0740187 67.0097255,8.70669159 67.3965743,7.35760748 C67.9934098,5.26205607 68.4151578,3.09562617 68.660931,0.857719626 C68.660931,0.360971963 68.3793714,0.146841121 67.8183223,0.218317757 C66.764248,0.431551402 65.771691,0.733308411 64.8418342,1.12388785 C63.9110902,1.51446729 63.0933249,1.94093458 62.3912003,2.40209346 C61.0218501,3.22063551 59.826996,4.18721495 58.8092997,5.30631776 C57.7898289,6.42482243 56.9294748,7.65996262 56.2273501,9.00874766 C55.8056021,9.79050467 55.4373859,10.6072523 55.1209271,11.4598879 L43.6884801,11.4060561 C43.4081034,11.4060561 43.188061,11.4859065 43.0301273,11.6465047 C42.8713064,11.8068037 42.7926353,11.9751776 42.7926353,12.1522243 C42.7926353,12.3304673 42.8544483,12.5081121 42.977187,12.685757 C43.1005172,12.8634019 43.3025186,12.969271 43.5828952,13.0042617 L54.6997706,13.0574953 C54.312626,14.6216075 54.1197931,16.1480374 54.1197931,17.6397757 C54.1197931,20.0900187 54.4534058,22.2214579 55.1209271,24.0325981 C55.0153422,24.1094579 54.9091658,24.1773458 54.8035809,24.2503178 C53.9692533,24.7778692 53.0598037,25.2653458 52.0660637,25.7112523 C50.8360146,26.2615327 49.5367586,26.7143178 48.166817,27.0693084 C46.7968753,27.4242991 45.382866,27.5582804 43.9259721,27.4682617 C42.468191,27.3806355 41.3874987,27.1581308 40.685374,26.8025421 C40.1583369,26.5549159 39.7105623,26.2788785 39.3423462,25.9765234 C38.9732427,25.6759626 38.6656565,25.3915514 38.4198833,25.124785 C38.1744058,24.8583178 37.9277454,24.5475888 37.6828594,24.1922991 C37.4367905,23.8373084 37.1726804,23.6584673 36.8928952,23.6584673 C36.6267149,23.6788037 36.4403886,23.7619439 36.3280013,23.9057944 C36.2274443,23.9548411 36.1194934,24.0113645 35.9976419,24.0858318 C35.681183,24.3352523 35.2677162,24.5918505 34.7587202,24.8583178 C34.2497241,25.124785 33.2577586,25.4097944 31.7822321,25.7112523 C30.3072971,26.0130093 28.024061,26.0034393 24.9334111,25.6843364 C23.5980729,25.4711028 22.5008183,25.2405234 21.6410557,24.9914019 C20.7798143,24.7428785 20.2622414,24.8143551 20.0862666,25.2040374 C19.8753926,26.0213832 19.559821,26.9185794 19.1380729,27.894729 C18.7160292,28.8708785 18.1709509,29.6795514 17.504317,30.3189533 C17.2230531,30.6024673 16.7752785,30.505271 16.1612891,30.0258692 C15.5464125,29.5464673 14.9572666,29.0048598 14.396809,28.4007477 C13.8339854,27.7975327 13.280626,27.1318131 12.736435,26.4032897 C12.1919483,25.6759626 11.7968183,25.124785 11.5516366,24.7512523 C11.3052719,24.3783178 11.0417533,24.0152523 10.7607851,23.6584673 C10.5153077,23.4464299 10.268943,23.3761495 10.0234655,23.4464299 C9.77769231,23.5179065 9.60201326,23.6788037 9.49642838,23.9264299 C9.28614589,24.7781682 8.92561936,25.7199252 8.4169191,26.7490093 C7.90674005,27.780785 7.31848143,28.5969346 6.65155172,29.2007477 C6.40548276,29.412785 6.06270159,29.3870654 5.62350398,29.12 C5.18489788,28.8541308 4.71050531,28.4638505 4.2021008,27.9488598 C3.69192175,27.4338692 3.1912069,26.8384299 2.70054775,26.1631402 C2.20752255,25.4893458 1.76891645,24.8666916 1.38295491,24.2981682 C1.34302785,24.2503178 1.30162202,24.2078505 1.26051194,24.1683738 C1.15344828,23.9054953 0.915364721,23.7194766 0.630551724,23.670729 C0.212352785,23.9500561 0.0334204244,24.6965234 0.141075597,25.3242617 L0.154088859,25.3242617 C0.519643236,25.8260935 0.925420424,26.3688972 1.38295491,26.9628411 C1.87420557,27.602243 2.40124271,28.2063551 2.96406631,28.7733832 C3.52481963,29.3419065 4.11396552,29.8296822 4.72884218,30.2397009 C5.34283156,30.647028 5.94853979,30.8509907 6.5462626,30.8509907 C7.14280239,30.8509907 7.73135676,30.6024673 8.31133422,30.1054206 C8.89101592,29.6083738 9.42633422,28.7733832 9.91788064,27.602243 C10.1290504,27.1401869 10.3567825,26.679028 10.6028515,26.2160748 C11.2351777,27.1401869 11.9807785,28.0989907 12.8426114,29.0936822 C13.702374,30.0874766 14.5979231,30.8602617 15.5289629,31.4111402 C16.4597069,31.9614206 17.346679,32.0774579 18.1892878,31.757757 C19.0321923,31.4368598 19.8047069,30.4604112 20.5080146,28.827514 C20.6479072,28.5437009 20.7975597,28.2419439 20.9551976,27.9213458 C21.1140186,27.602243 21.2627838,27.1940187 21.4032679,26.6963738 C23.5111207,27.1940187 25.4601525,27.4775327 27.2518422,27.5484112 C29.0432361,27.620486 30.5879695,27.5582804 31.887817,27.3626916 C33.1870729,27.1671028 34.2402599,26.8743178 35.048561,26.4837383 C35.6850279,26.1754019 36.2428236,25.8449346 36.7269761,25.4926355 C36.8367016,25.6475514 36.9600318,25.8075514 37.1034735,25.9765234 C37.6302149,26.5988785 38.1211698,27.0776822 38.5784085,27.4156262 C39.0341684,27.753271 39.5434602,28.0373832 40.1056923,28.2679626 C40.6676286,28.4985421 41.3523037,28.6845607 42.1609005,28.827514 C43.248691,28.968972 44.400069,29.0048598 45.6120769,28.932785 C46.8237891,28.8631028 48.0875544,28.6325234 49.405443,28.2419439 C50.7230358,27.8507664 51.9604788,27.4075514 53.1189549,26.9102056 C53.6871021,26.6658692 54.1934363,26.422729 54.6429854,26.1792897 C54.9647679,26.0719252 55.2980849,25.8661682 55.6432321,25.5644112 C55.6819761,25.5377944 55.7239735,25.5114766 55.7606472,25.4848598 C56.1806207,26.2226542 56.643183,26.8145047 57.149813,27.2553271 C57.6579218,27.7000374 58.2115769,28.064 58.8092997,28.3478131 C59.4058395,28.6325234 60.1082599,28.8445607 60.916561,28.987514 C61.9348488,29.1283738 63.0504403,29.1645607 64.2621525,29.0936822 C65.473569,29.0222056 66.7116034,28.781757 67.976256,28.3744299 C69.2409085,27.9671028 70.4875199,27.4960748 71.7169775,26.9628411 C72.101756,26.7959626 72.4534098,26.6293832 72.7793329,26.4622056 C72.9650676,26.4200374 73.1904337,26.3108785 73.4557268,26.1365234 C73.8061976,25.9068411 74.0694204,25.7199252 74.2462825,25.5775701 C74.7011552,26.395514 75.2210942,27.1754766 75.8004801,27.9213458 C76.3795703,28.667215 76.8971432,29.0404486 77.3546777,29.0404486 C77.5655517,29.0404486 77.7400477,28.968972 77.8811233,28.827514 C78.407569,28.2942804 78.9606326,27.6913645 79.5406101,27.0160748 C80.1208833,26.3413832 80.7162401,25.7028785 81.3322997,25.0978692 C81.9459934,24.4946542 82.5517016,23.9874393 83.1500159,23.5798131 C83.7465557,23.1712897 84.3265332,22.9673271 84.8884695,22.9673271 C85.3093302,23.0020187 85.6955875,23.1712897 86.0472414,23.4733458 C86.3983037,23.7748037 86.7322122,24.1211215 87.0480796,24.5125981 C87.3645385,24.9034766 87.6715332,25.3114019 87.9705424,25.7378692 C88.2680729,26.1631402 88.5759549,26.5366729 88.892118,26.8566729 C89.3836645,27.3543178 89.9633462,27.7081121 90.6308674,27.9213458 C91.2975013,28.1339813 91.9827679,28.2419439 92.6857798,28.2419439 C93.2125212,28.2419439 93.9675862,28.1262056 94.950679,27.894729 C95.9340676,27.6644486 96.9088793,27.3626916 97.8748183,26.9891589 C98.8407573,26.6165234 99.6839576,26.199028 100.404419,25.7378692 C101.123106,25.2764112 101.483928,24.8314019 101.483928,24.4055327 C101.483928,24.2278879 101.405257,24.068486 101.247028,23.9264299 C101.089094,23.7840748 100.921992,23.712 100.746313,23.712 Z M58.4401963,8.26317757 C59.2121194,7.16201869 60.0647838,6.23013084 60.9955279,5.46631776 C61.9253846,4.7031028 62.8040756,4.08164486 63.6298263,3.60134579 C64.4546897,3.12194393 65.1577016,2.7753271 65.7370875,2.56209346 C66.3167692,2.34856075 66.7116034,2.22534579 66.9224775,2.18945794 C66.7467984,3.93001869 66.3250504,5.81233645 65.6584164,7.83730841 C65.2712719,9.04463551 64.83237,10.2522617 64.3411194,11.4598879 L56.7537958,11.4598879 C57.2107387,10.2522617 57.7723793,9.18728972 58.4401963,8.26317757 Z M56.5964536,22.9673271 C56.0342215,20.8358879 55.7535491,18.9003364 55.7535491,17.1594766 C55.7535491,15.6677383 55.9114828,14.3013084 56.2273501,13.0574953 L63.603504,13.0574953 C63.4985106,13.270729 63.181756,13.92 62.6553103,15.0026168 C62.1279775,16.086729 61.2856645,17.444785 60.1274841,19.0776822 C58.9666419,20.7117757 57.7898289,22.0082243 56.5964536,22.9673271 Z M72.9070995,24.5475888 C72.3096724,24.9079626 71.6149416,25.2779065 70.8214284,25.6568224 C69.5212851,26.2788785 68.1338939,26.7944673 66.6595504,27.2017944 C65.1843196,27.611215 63.4795822,27.7081121 61.5485915,27.4960748 C59.4413302,27.1051963 58.018744,26.0928598 57.2811286,24.4587664 C59.0373276,23.0020187 60.5646114,21.3508785 61.8644589,19.5041495 C63.1634191,17.6571215 64.0595597,16.1659813 64.5519934,15.0295327 C65.0426525,13.8933832 65.324508,13.2366355 65.3946021,13.0574953 L73.1972361,13.0574953 C72.8097958,14.6024673 72.6122308,16.1309907 72.6122308,17.6397757 C72.6122308,20.1961869 72.9289854,22.3455701 73.5613117,24.0858318 C73.342748,24.2455327 73.1244801,24.3989533 72.9070995,24.5475888 Z M74.2462825,17.1594766 C74.2462825,15.6620561 74.4095398,14.2965234 74.7322095,13.0574953 L75.720626,13.0574953 C76.2118767,12.9869159 76.4759867,12.7470654 76.5108859,12.3391402 C76.5451936,11.931215 76.3177573,11.6551776 75.8268024,11.5125234 L75.2435716,11.5086355 C75.7120491,10.2938318 76.2710279,9.20553271 76.932634,8.26317757 C77.7042613,7.16201869 78.55663,6.23013084 79.4888528,5.46631776 C80.4184138,4.7031028 81.296809,4.08164486 82.1228554,3.60134579 C82.9465358,3.12194393 83.6672931,2.76725234 84.283057,2.53607477 C84.8967507,2.30579439 85.2747268,2.17211215 85.4149151,2.13652336 C85.1691419,3.94736449 84.7299443,5.86527103 84.0979138,7.89024299 C83.4658833,9.91491589 82.6839045,11.876785 81.7531605,13.7770467 C80.8224164,15.6776075 79.7860875,17.435514 78.6447653,19.0513645 C77.503443,20.6684112 76.3177573,21.9732336 75.0888912,22.9673271 C74.5263634,20.9076636 74.2462825,18.971215 74.2462825,17.1594766 Z" id="Shape"></path>
                    <path d="M216.201458,24.4922617 C216.065706,24.3379439 215.861634,24.2784299 215.589538,24.3119252 C215.419479,24.3119252 215.096218,24.4500935 214.62005,24.7249346 C212.748802,25.7229159 210.580024,26.4965981 208.114306,27.0468785 C205.647702,27.5974579 203.12165,27.8722991 200.536447,27.8722991 C200.059984,27.8722991 199.42263,27.8642243 198.623202,27.8462804 C197.824365,27.8292336 196.999501,27.7428037 196.149203,27.5890841 C195.298017,27.4335701 194.49918,27.1841495 193.750622,26.8405234 C193.002064,26.4965981 192.44131,25.9980561 192.067179,25.3442991 C192.645086,25.0000748 193.282145,24.5786916 193.980129,24.0795514 C194.677521,23.5816075 195.25602,23.1602243 195.715329,22.8162991 C196.174638,22.4723738 196.633355,22.0333458 197.09296,21.5001121 C197.551973,20.9668785 197.781184,20.4773084 197.781184,20.0296075 C197.781184,19.6162991 197.61911,19.2903178 197.297328,19.049271 C196.973179,18.8091215 196.429284,18.7140187 195.663867,18.7660561 C194.898451,18.8168972 194.158174,19.0322243 193.444219,19.4108411 C192.73056,19.7894579 192.118345,20.2189159 191.60787,20.7004112 C191.097691,21.1822056 190.723264,21.672972 190.483997,22.1709159 C190.247097,22.6700561 190.102176,23.1255327 190.051306,23.5379439 C190.000732,23.9512523 190.009605,24.3813084 190.076741,24.8281121 C190.001915,24.8813458 189.940398,24.9384673 189.888641,24.9982804 C189.383194,25.2219813 188.752938,25.4504673 187.983085,25.6843364 C186.931081,26.0034393 185.647796,26.2435888 184.137666,26.4032897 C182.626649,26.5626916 181.336561,26.5288972 180.26622,26.2965234 C179.193809,26.0659439 178.263065,25.7468411 177.473101,25.3374206 C176.682545,24.9291963 176.137763,24.7078879 175.840232,24.6711028 C175.540631,24.6367103 175.339517,24.8143551 175.233637,25.2040374 C175.023946,26.0213832 174.671996,26.9984299 174.18045,28.1339813 C173.68772,29.270729 173.178724,29.9992523 172.652574,30.3189533 C172.336115,30.5321869 171.853442,30.3901308 171.203666,29.8921869 C170.553594,29.3948411 169.912691,28.8008972 169.280069,28.1082617 C168.648038,27.4156262 168.051203,26.6694579 167.488971,25.8706542 C166.926443,25.0715514 166.453529,24.3881869 166.06668,23.8196636 C165.890706,23.606729 165.698168,23.4826168 165.487294,23.446729 C165.277308,23.4108411 165.091277,23.446729 164.934231,23.5525981 C164.84018,23.6157009 164.771269,23.7033271 164.71478,23.8029159 C164.642024,23.8214579 164.567789,23.8432897 164.487048,23.8722991 C163.188088,24.8314019 162.115676,25.3643364 161.273659,25.4711028 C160.429867,25.5778692 159.569218,25.5958131 158.691414,25.5243364 C157.814793,25.4534579 156.95296,25.2764112 156.10976,24.9917009 C155.266855,24.7078879 154.353265,24.3352523 153.370468,23.8722991 C152.386192,23.3402617 151.684659,22.9320374 151.262911,22.6473271 C150.840867,22.3638131 150.454906,22.1864673 150.103844,22.1143925 C149.788272,22.0797009 149.52357,22.1143925 149.312992,22.2214579 C149.103301,22.3279252 148.979379,22.523514 148.943593,22.807028 C148.943593,22.985271 149.00511,23.1539439 149.128145,23.3130467 C149.251771,23.4733458 149.39255,23.6952523 149.550484,23.9799626 C149.707826,24.2637757 149.698954,24.5475888 149.52357,24.8314019 C148.961634,25.5066916 148.207456,26.0213832 147.258375,26.3763738 C146.310773,26.7322617 145.300767,26.9813832 144.229243,27.1231402 C143.157127,27.2645981 142.095955,27.3184299 141.041289,27.2825421 C139.988102,27.2475514 139.07392,27.1754766 138.302293,27.0693084 C137.986426,27.0340187 137.625603,26.9628411 137.221601,26.8566729 C136.817598,26.7493084 136.432228,26.6254953 136.062829,26.4837383 C135.694317,26.3413832 135.37845,26.1819813 135.115523,26.0034393 C134.850525,25.8257944 134.70176,25.6299065 134.667748,25.417271 C134.667748,25.0266916 135.359521,24.6274393 136.7478,24.2189159 C138.134599,23.8106916 139.548017,23.5798131 140.98894,23.5262804 C142.42868,23.4733458 143.720247,23.5089346 144.861569,23.6339439 C146.001708,23.7574579 146.722761,23.8642243 147.022066,23.9524486 C147.319301,24.0418692 147.582524,24.1127477 147.811439,24.1659813 C148.040058,24.2189159 148.240877,24.2018692 148.417147,24.1127477 C148.593418,24.0245234 148.689243,23.8373084 148.706988,23.5525981 C148.724142,23.2690841 148.593418,23.0202617 148.313041,22.807028 C147.469545,22.4876262 146.406598,22.2567477 145.124792,22.1143925 C143.842394,21.9732336 142.75342,21.9191028 141.857576,21.9540935 C140.96321,21.9908785 140.049028,22.061757 139.118284,22.1676262 C138.187836,22.2749907 137.301455,22.4526355 136.457959,22.7002617 C135.720344,22.9134953 135.061695,23.1626168 134.482901,23.446729 C133.921556,23.7215701 133.445684,24.0472523 133.04878,24.420486 C132.398117,24.8116636 131.621757,25.2240748 130.715265,25.6568224 C129.415122,26.2788785 128.02921,26.7944673 126.553683,27.2017944 C125.077861,27.611215 123.374306,27.7084112 121.442428,27.4960748 C119.335167,27.1051963 117.913468,26.0928598 117.175261,24.4587664 C118.931756,23.0020187 120.459336,21.3508785 121.758887,19.5041495 C123.058439,17.6571215 124.163975,15.6865794 125.077861,13.5904299 C125.991451,11.4963738 126.737643,9.40859813 127.317621,7.33039252 C127.897007,5.25308411 128.309586,3.09562617 128.555359,0.857719626 C128.555359,0.360971963 128.2738,0.146841121 127.712751,0.218317757 C126.658676,0.431551402 125.666119,0.733308411 124.735671,1.12388785 C123.804631,1.51476636 122.988345,1.90564486 122.285924,2.29592523 C120.916279,3.1844486 119.72172,4.18721495 118.703728,5.30631776 C117.684257,6.4251215 116.82479,7.65009346 116.121187,8.98272897 C115.418471,10.3144673 114.891434,11.7176822 114.540076,13.1917757 C114.190492,14.6646729 114.014517,16.1480374 114.014517,17.6400748 C114.014517,20.1256075 114.34813,22.2749907 115.015355,24.0858318 C114.769582,24.2637757 114.531794,24.4234766 114.304358,24.5655327 C114.076034,24.7078879 113.82198,24.8669907 113.540716,25.0449346 C113.224849,25.3643364 113.16274,25.7112523 113.355573,26.0829907 C113.548997,26.4565234 113.874625,26.5719626 114.330385,26.4296075 C114.681447,26.2519626 115.138094,25.9508037 115.700622,25.5243364 C116.085992,26.235514 116.534654,26.8124112 117.043354,27.2553271 C117.552646,27.7000374 118.105118,28.064 118.703728,28.3478131 C119.300268,28.6325234 120.002688,28.8445607 120.810694,28.987514 C121.828981,29.1286729 122.943981,29.1645607 124.156285,29.0936822 C125.368293,29.0222056 126.632058,28.7733832 127.94906,28.3478131 C129.265765,27.9213458 130.495519,27.4506168 131.637728,26.9359252 C132.0648,26.742729 132.448691,26.5594019 132.789402,26.3841495 C133.038428,26.674243 133.432671,26.9736075 133.981594,27.2825421 C135.000769,27.8507664 136.097432,28.2679626 137.274541,28.5338318 C138.45165,28.8008972 139.653898,28.9423551 140.88306,28.9608972 C142.113109,28.9779439 143.333102,28.8795514 144.545406,28.667514 C145.756527,28.4539813 146.889863,28.1528224 147.943346,27.7613458 C148.926735,27.3710654 149.707826,26.9359252 150.287508,26.4565234 C150.86719,25.9768224 151.191634,25.4361121 151.262911,24.8314019 C152.491481,25.3643364 153.650549,25.8257944 154.74041,26.2160748 C155.827905,26.6084486 157.058249,26.8826916 158.427599,27.0420935 C159.798428,27.2017944 161.018422,27.1491589 162.089058,26.8826916 C163.083981,26.6350654 164.100199,26.1170841 165.13919,25.3341308 C165.416017,25.7549159 165.730702,26.2151776 166.093003,26.7226916 C166.636602,27.4877009 167.225452,28.2231028 167.858074,28.932785 C168.490992,29.6436636 169.157034,30.2740935 169.860046,30.824972 C170.561875,31.3752523 171.257493,31.7122991 171.94069,31.8373084 C172.626252,31.9614206 173.284901,31.8020187 173.916635,31.3573084 C174.549257,30.9131963 175.199329,29.9801121 175.86685,28.5601495 C176.006151,28.2775327 176.130073,28.0011963 176.235066,27.7353271 C176.340947,27.4682617 176.462798,27.1581308 176.60417,26.8025421 C176.884251,26.9448972 177.16581,27.0872523 177.446779,27.2293084 C178.605846,27.6913645 179.791236,27.9748785 181.002061,28.0810467 C182.214956,28.1884112 183.382305,28.1791402 184.506473,28.0544299 C185.630642,27.9309159 186.78971,27.6913645 187.983085,27.3354766 C189.166996,26.9843738 190.092121,26.6577944 190.757572,26.3584299 C191.219247,26.9721121 191.756044,27.4784299 192.372399,27.8722991 C193.018922,28.2850093 193.784338,28.6121869 194.66924,28.8526355 C195.55355,29.0933832 196.471873,29.2393271 197.425094,29.2910654 C198.37595,29.3428037 199.294568,29.3688224 200.180061,29.3688224 C202.866708,29.3688224 205.792622,29.024 208.956324,28.3367477 C212.120025,27.6491963 214.399121,26.788486 215.79361,25.7573084 C216.099422,25.5503551 216.27865,25.3272523 216.329816,25.0862056 C216.380686,24.845757 216.337505,24.6474766 216.201458,24.4922617 Z M116.49029,22.9673271 C115.928058,20.8358879 115.64709,18.9003364 115.64709,17.1594766 C115.64709,15.2780561 115.902328,13.5994019 116.411915,12.1256075 C116.920024,10.6521121 117.56211,9.36433645 118.334033,8.26317757 C119.106844,7.16201869 119.889118,6.24747664 120.678786,5.51925234 C121.469342,4.79192523 122.259011,4.18721495 123.050158,3.70781308 C123.840122,3.22871028 124.612045,2.86474766 125.368293,2.61592523 C126.122471,2.36770093 126.606328,2.22564486 126.816314,2.18945794 C126.640635,3.93001869 126.228056,5.80396262 125.578871,7.81039252 C124.928208,9.81742056 124.129963,11.7888598 123.181769,13.7241121 C122.232984,15.6596636 121.179797,17.444785 120.020138,19.0776822 C118.862253,20.7117757 117.684257,22.0082243 116.49029,22.9673271 Z M192.118345,22.4544299 C192.423565,22.0417196 192.781134,21.654729 193.189869,21.2934579 C193.59742,20.9318879 194.005859,20.6486729 194.414003,20.4420187 C194.822146,20.2362617 195.187405,20.1154393 195.510666,20.0807477 C195.833631,20.0472523 195.995706,20.0986916 195.995706,20.2362617 C195.995706,20.4770093 195.569817,20.9411589 194.720702,21.6290093 C193.86922,22.317757 192.848566,23.04 191.65874,23.7963364 C191.65874,23.3148411 191.811646,22.8668411 192.118345,22.4544299 Z" id="Shape"></path>
                </g>
            </g>
        </g>
    </g>
</svg>